<svg width="23" height="19" viewBox="0 0 23 19" fill="none" xmlns="http://www.w3.org/2000/svg">
<path d="M20.2071 15.3581H2.16393C1.99303 15.3581 1.82912 15.2683 1.70827 15.1083C1.58742 14.9484 1.51953 14.7314 1.51953 14.5052C1.51953 14.279 1.58742 14.0621 1.70827 13.9021C1.82912 13.7422 1.99303 13.6523 2.16393 13.6523H20.2071C20.378 13.6523 20.5419 13.7422 20.6628 13.9021C20.7836 14.0621 20.8515 14.279 20.8515 14.5052C20.8515 14.7314 20.7836 14.9484 20.6628 15.1083C20.5419 15.2683 20.378 15.3581 20.2071 15.3581Z" fill="white"/>
<path d="M20.2071 10.3034H2.16393C1.99303 10.3034 1.82912 10.2136 1.70827 10.0536C1.58742 9.89367 1.51953 9.67674 1.51953 9.45054C1.51953 9.22434 1.58742 9.00741 1.70827 8.84746C1.82912 8.68751 1.99303 8.59766 2.16393 8.59766H20.2071C20.378 8.59766 20.5419 8.68751 20.6628 8.84746C20.7836 9.00741 20.8515 9.22434 20.8515 9.45054C20.8515 9.67674 20.7836 9.89367 20.6628 10.0536C20.5419 10.2136 20.378 10.3034 20.2071 10.3034Z" fill="white"/>
<path d="M20.2071 5.24873H2.16393C1.99303 5.24873 1.82912 5.15888 1.70827 4.99893C1.58742 4.83898 1.51953 4.62205 1.51953 4.39585C1.51953 4.16965 1.58742 3.95272 1.70827 3.79277C1.82912 3.63283 1.99303 3.54297 2.16393 3.54297H20.2071C20.378 3.54297 20.5419 3.63283 20.6628 3.79277C20.7836 3.95272 20.8515 4.16965 20.8515 4.39585C20.8515 4.62205 20.7836 4.83898 20.6628 4.99893C20.5419 5.15888 20.378 5.24873 20.2071 5.24873Z" fill="white"/>
</svg>
